<svg width="54" height="62" viewBox="0 0 54 62" fill="none" xmlns="http://www.w3.org/2000/svg">
<path d="M27.0001 62C30.6831 62 33.8547 59.755 35.2463 56.5508H18.7538C20.1455 59.755 23.3172 62 27.0001 62ZM45.6 30.0145V26.0352C45.6 17.5801 40.0307 10.4139 32.4001 8.07332V5.44922C32.4001 2.44452 29.9776 0 27.0001 0C24.0225 0 21.6001 2.44452 21.6001 5.44922V8.07332C13.9693 10.4139 8.40017 17.58 8.40017 26.0352V30.0145C8.40017 37.4415 5.59483 44.4838 0.500974 49.8444C0.256735 50.1013 0.0927159 50.425 0.0293068 50.7753C-0.0341023 51.1255 0.00589547 51.4868 0.144328 51.8143C0.28276 52.1418 0.513521 52.421 0.807924 52.6172C1.10233 52.8135 1.44739 52.918 1.80021 52.918H52.1999C52.5527 52.918 52.8978 52.8134 53.1921 52.6171C53.4865 52.4209 53.7172 52.1417 53.8557 51.8142C53.9941 51.4868 54.0341 51.1255 53.9707 50.7753C53.9073 50.425 53.7434 50.1013 53.4992 49.8444C48.4053 44.4838 45.6 37.4413 45.6 30.0145ZM28.8001 7.35378C28.2076 7.29614 27.6073 7.26562 27.0001 7.26562C26.3929 7.26562 25.7925 7.29614 25.2001 7.35378V5.44922C25.2001 4.44765 26.0076 3.63281 27.0001 3.63281C27.9926 3.63281 28.8001 4.44765 28.8001 5.44922V7.35378ZM50.4 26.0352C50.4 27.0383 51.2059 27.8516 52.1999 27.8516C53.194 27.8516 53.9999 27.0383 53.9999 26.0352C53.9999 18.7574 51.1915 11.9153 46.0919 6.76914C45.389 6.05989 44.2493 6.05977 43.5463 6.76914C42.8434 7.47851 42.8434 8.62854 43.5463 9.3379C47.966 13.7979 50.4 19.7277 50.4 26.0352ZM1.80021 27.8516C2.79428 27.8516 3.6002 27.0383 3.6002 26.0352C3.6002 19.7279 6.03427 13.798 10.4538 9.33802C11.1568 8.62866 11.1568 7.47863 10.4538 6.76926C9.75101 6.05989 8.61125 6.05989 7.9083 6.76926C2.80868 11.9154 0.000216956 18.7574 0.000216956 26.0352C0.000216956 27.0383 0.806133 27.8516 1.80021 27.8516Z" fill="url(#paint0_radial_0_44)"/>
<defs>
<radialGradient id="paint0_radial_0_44" cx="0" cy="0" r="1" gradientUnits="userSpaceOnUse" gradientTransform="translate(27 31) rotate(90) scale(37.1061 32.3182)">
<stop stop-color="#EF6731"/>
<stop offset="1" stop-color="#FF9F19"/>
</radialGradient>
</defs>
</svg>
