<svg width="66" height="66" viewBox="0 0 66 66" fill="none" xmlns="http://www.w3.org/2000/svg">
<path d="M57.75 0C58.4724 -0.000542192 59.188 0.141798 59.8555 0.417969C60.5229 0.694137 61.1299 1.09868 61.6406 1.60938C62.1514 2.12011 62.5558 2.72712 62.832 3.39453C63.1082 4.06183 63.2504 4.77683 63.25 5.49902C63.2502 6.59378 62.9231 7.66395 62.3105 8.57129C61.6979 9.47866 60.828 10.1827 59.8125 10.5918V25.959C63.6898 31.8205 65.9999 38.9827 66 46.749C66 57.3841 51.23 66 33 66C14.7758 66 0 57.3841 0 46.749C8.47892e-05 38.9859 2.30842 31.82 6.1875 25.9609V10.5918C4.17368 9.77587 2.75098 7.80902 2.75098 5.49902C2.75092 4.77694 2.89267 4.06167 3.16895 3.39453C3.44528 2.72734 3.85069 2.12099 4.36133 1.61035C4.87198 1.09976 5.47833 0.694265 6.14551 0.417969C6.81269 0.141718 7.52788 -0.000108353 8.25 0C8.97232 -0.00043381 9.68805 0.141749 10.3555 0.417969C11.0226 0.694146 11.629 1.09883 12.1396 1.60938C12.6504 2.12013 13.0558 2.72711 13.332 3.39453C13.6081 4.06175 13.7494 4.77693 13.749 5.49902C13.7489 6.59366 13.422 7.664 12.8096 8.57129C12.1972 9.47847 11.3276 10.1823 10.3125 10.5918V20.8311C16.2294 14.7517 24.2022 11 33 11C41.7978 11 49.7739 14.7522 55.6875 20.8291V10.5918C53.6737 9.77587 52.25 7.80902 52.25 5.49902C52.2501 4.7769 52.3916 4.06168 52.668 3.39453C52.9444 2.72732 53.3497 2.121 53.8604 1.61035C54.3711 1.09967 54.9782 0.694293 55.6455 0.417969C56.3127 0.141757 57.0279 -0.000108329 57.75 0ZM49.5 30.249C39.3162 33.7775 27.5105 34.0514 16.5 30.249C13.9492 34.4705 12.3751 40.3035 12.375 46.749C12.375 49.7867 21.6043 52.249 33 52.249C44.3899 52.249 53.625 49.7867 53.625 46.749C53.6249 40.3043 52.0517 34.4705 49.5 30.249ZM22.6875 39.874C24.5875 39.874 26.124 41.4125 26.124 43.3125C26.124 45.2141 24.5874 46.749 22.6875 46.749C20.7876 46.749 19.251 45.2141 19.251 43.3125C19.251 41.4125 20.7876 39.8741 22.6875 39.874ZM43.3125 39.874C45.2141 39.874 46.75 41.4125 46.75 43.3125C46.7499 45.2141 45.2141 46.749 43.3125 46.749C41.4109 46.749 39.8751 45.2141 39.875 43.3125C39.875 41.4125 41.4109 39.8741 43.3125 39.874Z" fill="#FF9F19"/>
<path d="M57.75 0C58.4724 -0.000542192 59.188 0.141798 59.8555 0.417969C60.5229 0.694137 61.1299 1.09868 61.6406 1.60938C62.1514 2.12011 62.5558 2.72712 62.832 3.39453C63.1082 4.06183 63.2504 4.77683 63.25 5.49902C63.2502 6.59378 62.9231 7.66395 62.3105 8.57129C61.6979 9.47866 60.828 10.1827 59.8125 10.5918V25.959C63.6898 31.8205 65.9999 38.9827 66 46.749C66 57.3841 51.23 66 33 66C14.7758 66 0 57.3841 0 46.749C8.47892e-05 38.9859 2.30842 31.82 6.1875 25.9609V10.5918C4.17368 9.77587 2.75098 7.80902 2.75098 5.49902C2.75092 4.77694 2.89267 4.06167 3.16895 3.39453C3.44528 2.72734 3.85069 2.12099 4.36133 1.61035C4.87198 1.09976 5.47833 0.694265 6.14551 0.417969C6.81269 0.141718 7.52788 -0.000108353 8.25 0C8.97232 -0.00043381 9.68805 0.141749 10.3555 0.417969C11.0226 0.694146 11.629 1.09883 12.1396 1.60938C12.6504 2.12013 13.0558 2.72711 13.332 3.39453C13.6081 4.06175 13.7494 4.77693 13.749 5.49902C13.7489 6.59366 13.422 7.664 12.8096 8.57129C12.1972 9.47847 11.3276 10.1823 10.3125 10.5918V20.8311C16.2294 14.7517 24.2022 11 33 11C41.7978 11 49.7739 14.7522 55.6875 20.8291V10.5918C53.6737 9.77587 52.25 7.80902 52.25 5.49902C52.2501 4.7769 52.3916 4.06168 52.668 3.39453C52.9444 2.72732 53.3497 2.121 53.8604 1.61035C54.3711 1.09967 54.9782 0.694293 55.6455 0.417969C56.3127 0.141757 57.0279 -0.000108329 57.75 0ZM49.5 30.249C39.3162 33.7775 27.5105 34.0514 16.5 30.249C13.9492 34.4705 12.3751 40.3035 12.375 46.749C12.375 49.7867 21.6043 52.249 33 52.249C44.3899 52.249 53.625 49.7867 53.625 46.749C53.6249 40.3043 52.0517 34.4705 49.5 30.249ZM22.6875 39.874C24.5875 39.874 26.124 41.4125 26.124 43.3125C26.124 45.2141 24.5874 46.749 22.6875 46.749C20.7876 46.749 19.251 45.2141 19.251 43.3125C19.251 41.4125 20.7876 39.8741 22.6875 39.874ZM43.3125 39.874C45.2141 39.874 46.75 41.4125 46.75 43.3125C46.7499 45.2141 45.2141 46.749 43.3125 46.749C41.4109 46.749 39.8751 45.2141 39.875 43.3125C39.875 41.4125 41.4109 39.8741 43.3125 39.874Z" fill="url(#paint0_radial_0_54)"/>
<defs>
<radialGradient id="paint0_radial_0_54" cx="0" cy="0" r="1" gradientUnits="userSpaceOnUse" gradientTransform="translate(33 33) rotate(90) scale(39.5)">
<stop stop-color="#EF6731"/>
<stop offset="1" stop-color="#FF9F19"/>
</radialGradient>
</defs>
</svg>
