<svg width="66" height="66" viewBox="0 0 66 66" fill="none" xmlns="http://www.w3.org/2000/svg">
<path d="M12.2281 44.6831H1.68012C0.812298 44.6831 0.10869 45.3901 0.10869 46.2621V64.421C0.10869 65.293 0.812298 66 1.68012 66H12.2282C13.096 66 13.7996 65.293 13.7996 64.421V46.2621C13.7995 45.3899 13.096 44.6831 12.2281 44.6831ZM10.6566 62.842H3.25155V47.841H10.6568L10.6566 62.842ZM29.6282 27.6936H19.0802C18.2123 27.6936 17.5087 28.4006 17.5087 29.2726V64.0085C17.5087 64.8805 18.2123 65.5875 19.0802 65.5875H29.6282C30.4961 65.5875 31.1997 64.8805 31.1997 64.0085V29.2726C31.1997 28.4005 30.4962 27.6936 29.6282 27.6936ZM28.0568 62.4295H20.6516V30.8516H28.0568V62.4295ZM47.0284 33.4723H36.4805C35.6126 33.4723 34.909 34.1793 34.909 35.0513V63.5959C34.909 64.4679 35.6126 65.1749 36.4805 65.1749H47.0284C47.8962 65.1749 48.5998 64.4679 48.5998 63.5959V35.0513C48.5998 34.1792 47.8962 33.4723 47.0284 33.4723ZM45.457 62.0169H38.0519V36.6303H45.457V62.0169ZM64.4286 17.3759H53.8805C53.0127 17.3759 52.3091 18.0829 52.3091 18.9549V63.1832C52.3091 64.0552 53.0127 64.7622 53.8805 64.7622H64.4286C65.2964 64.7622 66 64.0552 66 63.1832V18.9549C66 18.0828 65.2964 17.3759 64.4286 17.3759ZM62.8571 61.6042H55.4519V20.5339H62.8571V61.6042ZM5.9218 36.9278C9.18723 36.9278 11.8439 34.2585 11.8439 30.9774C11.8439 30.0497 11.6312 29.171 11.2527 28.3876L21.0949 19.7321C22.061 20.3761 23.1949 20.719 24.3543 20.718C26.3688 20.718 28.1506 19.7012 29.2208 18.1524L35.8478 20.4836C35.8382 20.6184 35.8331 20.7535 35.8326 20.8886C35.8326 24.1696 38.4891 26.8389 41.7544 26.8389C45.0199 26.8389 47.6765 24.1696 47.6765 20.8886C47.6772 20.0155 47.4855 19.153 47.1151 18.3632L55.8361 10.8762C56.8147 11.5451 57.9711 11.9021 59.1546 11.9008C62.42 11.9008 65.0767 9.23139 65.0767 5.95026C65.0767 2.66927 62.42 0 59.1546 0C55.8892 0 53.2327 2.66927 53.2327 5.95026C53.2319 6.82336 53.4237 7.68578 53.7941 8.47558L45.073 15.9627C44.0944 15.2938 42.938 14.9368 41.7544 14.9381C39.74 14.9381 37.9583 15.9548 36.888 17.5037L30.261 15.1724C30.27 15.0385 30.2762 14.9036 30.2762 14.7674C30.2762 11.4863 27.6196 8.81703 24.3541 8.81703C21.0887 8.81703 18.4322 11.4863 18.4322 14.7674C18.4312 15.6646 18.6334 16.5502 19.0233 17.3572L9.18107 26.0127C8.21495 25.3688 7.08112 25.0259 5.9218 25.027C2.6565 25.0271 0 27.6964 0 30.9774C0 34.2584 2.6565 36.9278 5.9218 36.9278ZM59.1545 3.1581C60.6869 3.1581 61.9337 4.41075 61.9337 5.95039C61.9337 7.49016 60.6869 8.74295 59.1545 8.74295C57.6221 8.74295 56.3754 7.49016 56.3754 5.95039C56.3754 4.41075 57.6221 3.1581 59.1545 3.1581ZM41.7543 18.0962C43.2868 18.0962 44.5335 19.349 44.5335 20.8887C44.5335 22.4284 43.2867 23.681 41.7543 23.681C40.222 23.681 38.9754 22.4284 38.9754 20.8887C38.9754 19.349 40.222 18.0962 41.7543 18.0962ZM24.3543 11.9751C25.8867 11.9751 27.1335 13.2278 27.1335 14.7676C27.1335 16.3075 25.8867 17.5601 24.3543 17.5601C22.8219 17.5601 21.5752 16.3073 21.5752 14.7676C21.5752 13.2278 22.8219 11.9751 24.3543 11.9751ZM5.9218 28.1851C7.45433 28.1851 8.701 29.4377 8.701 30.9774C8.701 32.5172 7.4542 33.7698 5.9218 33.7698C4.38952 33.7698 3.14286 32.5172 3.14286 30.9774C3.14286 29.4377 4.38952 28.1851 5.9218 28.1851Z" fill="url(#paint0_radial_0_39)"/>
<defs>
<radialGradient id="paint0_radial_0_39" cx="0" cy="0" r="1" gradientUnits="userSpaceOnUse" gradientTransform="translate(33 33) rotate(90) scale(39.5)">
<stop stop-color="#EF6731"/>
<stop offset="1" stop-color="#FF9F19"/>
</radialGradient>
</defs>
</svg>
