<svg width="76" height="66" viewBox="0 0 76 66" fill="none" xmlns="http://www.w3.org/2000/svg">
<path d="M37.918 37.7129C41.1379 42.663 46.0411 46.8828 53.0654 50.9277C54.1308 51.5359 55.3475 51.8564 56.5732 51.8564C57.799 51.8564 59.0151 51.5355 60.0947 50.918C67.1193 46.8824 72.023 42.6678 75.2383 37.7129H75.4316V61.2852C75.4316 63.8875 73.3192 66 70.7168 66H4.71484C2.11718 66 0 63.8875 0 61.2852V37.7129H37.918ZM11.7861 47.1426C10.4851 47.1426 9.4289 48.198 9.42871 49.499C9.42871 50.8002 10.4849 51.8564 11.7861 51.8564H21.2148C22.516 51.8564 23.5723 50.8002 23.5723 49.499C23.5721 48.198 22.5159 47.1426 21.2148 47.1426H11.7861ZM56.5713 0C56.8913 3.56473e-05 57.2078 0.0654624 57.502 0.191406L74.0029 7.2627C74.8703 7.63047 75.4316 8.48395 75.4316 9.42676V18.8555C75.4316 31.8438 70.6364 39.4247 57.7471 46.8311C57.3841 47.0384 56.9786 47.1426 56.5732 47.1426C56.1678 47.1426 55.7624 47.0385 55.3994 46.8311C42.5101 39.4058 37.7158 31.8249 37.7158 18.8555V9.42676C37.7158 8.48387 38.2769 7.63042 39.1396 7.2627L55.6396 0.191406C55.9339 0.0654278 56.2512 0 56.5713 0ZM65.1162 14.6641C64.1026 13.8579 62.6174 14.0186 61.8018 15.0322L54.3906 24.3008L51.4629 19.9111C50.7368 18.8223 49.2701 18.5393 48.1953 19.2559C47.1112 19.9772 46.8189 21.4392 47.54 22.5234L52.2549 29.5947C52.4614 29.903 52.738 30.159 53.0615 30.3408C53.3849 30.5225 53.7466 30.6254 54.1172 30.6416H54.2158C54.9277 30.6416 55.607 30.3161 56.0596 29.7598L65.4883 17.9736C66.2944 16.9553 66.1345 15.4702 65.1162 14.6641ZM33.001 14.1406V18.8555C33.001 22.3017 33.3408 25.4037 33.9961 28.2842H0V18.8555C0 16.2578 2.11718 14.1406 4.71484 14.1406H33.001Z" fill="#FF9F19"/>
<path d="M37.918 37.7129C41.1379 42.663 46.0411 46.8828 53.0654 50.9277C54.1308 51.5359 55.3475 51.8564 56.5732 51.8564C57.799 51.8564 59.0151 51.5355 60.0947 50.918C67.1193 46.8824 72.023 42.6678 75.2383 37.7129H75.4316V61.2852C75.4316 63.8875 73.3192 66 70.7168 66H4.71484C2.11718 66 0 63.8875 0 61.2852V37.7129H37.918ZM11.7861 47.1426C10.4851 47.1426 9.4289 48.198 9.42871 49.499C9.42871 50.8002 10.4849 51.8564 11.7861 51.8564H21.2148C22.516 51.8564 23.5723 50.8002 23.5723 49.499C23.5721 48.198 22.5159 47.1426 21.2148 47.1426H11.7861ZM56.5713 0C56.8913 3.56473e-05 57.2078 0.0654624 57.502 0.191406L74.0029 7.2627C74.8703 7.63047 75.4316 8.48395 75.4316 9.42676V18.8555C75.4316 31.8438 70.6364 39.4247 57.7471 46.8311C57.3841 47.0384 56.9786 47.1426 56.5732 47.1426C56.1678 47.1426 55.7624 47.0385 55.3994 46.8311C42.5101 39.4058 37.7158 31.8249 37.7158 18.8555V9.42676C37.7158 8.48387 38.2769 7.63042 39.1396 7.2627L55.6396 0.191406C55.9339 0.0654278 56.2512 0 56.5713 0ZM65.1162 14.6641C64.1026 13.8579 62.6174 14.0186 61.8018 15.0322L54.3906 24.3008L51.4629 19.9111C50.7368 18.8223 49.2701 18.5393 48.1953 19.2559C47.1112 19.9772 46.8189 21.4392 47.54 22.5234L52.2549 29.5947C52.4614 29.903 52.738 30.159 53.0615 30.3408C53.3849 30.5225 53.7466 30.6254 54.1172 30.6416H54.2158C54.9277 30.6416 55.607 30.3161 56.0596 29.7598L65.4883 17.9736C66.2944 16.9553 66.1345 15.4702 65.1162 14.6641ZM33.001 14.1406V18.8555C33.001 22.3017 33.3408 25.4037 33.9961 28.2842H0V18.8555C0 16.2578 2.11718 14.1406 4.71484 14.1406H33.001Z" fill="url(#paint0_radial_0_61)"/>
<defs>
<radialGradient id="paint0_radial_0_61" cx="0" cy="0" r="1" gradientUnits="userSpaceOnUse" gradientTransform="translate(38 33) rotate(90) scale(57 45.6023)">
<stop stop-color="#EF6731"/>
<stop offset="1" stop-color="#FF9F19"/>
</radialGradient>
</defs>
</svg>
