<svg width="68" height="66" viewBox="0 0 68 66" fill="none" xmlns="http://www.w3.org/2000/svg">
<path d="M51.0216 7.21744C43.799 10.0711 36.0635 11.9281 27.988 12.6163C25.6603 12.8147 23.304 12.9159 20.9231 12.9159H18.3077C8.19663 12.9159 0 21.0112 0 30.9973C0 39.9505 6.58884 47.3839 15.2389 48.8257C16.4045 53.5406 18.0219 58.0806 20.0431 62.3982C21.6613 65.8552 25.8812 66.9445 29.0492 65.1381L31.3379 63.833C34.4069 62.083 35.4028 58.3477 34.0303 55.3327C33.2113 53.5336 32.4804 51.6871 31.8429 49.7984C38.5292 50.6871 44.9563 52.3807 51.0216 54.7771C53.5522 47.3057 54.9231 39.3096 54.9231 30.9972C54.9231 22.6849 53.5522 14.6888 51.0216 7.21744Z" fill="#FF9F19"/>
<path d="M51.0216 7.21744C43.799 10.0711 36.0635 11.9281 27.988 12.6163C25.6603 12.8147 23.304 12.9159 20.9231 12.9159H18.3077C8.19663 12.9159 0 21.0112 0 30.9973C0 39.9505 6.58884 47.3839 15.2389 48.8257C16.4045 53.5406 18.0219 58.0806 20.0431 62.3982C21.6613 65.8552 25.8812 66.9445 29.0492 65.1381L31.3379 63.833C34.4069 62.083 35.4028 58.3477 34.0303 55.3327C33.2113 53.5336 32.4804 51.6871 31.8429 49.7984C38.5292 50.6871 44.9563 52.3807 51.0216 54.7771C53.5522 47.3057 54.9231 39.3096 54.9231 30.9972C54.9231 22.6849 53.5522 14.6888 51.0216 7.21744Z" fill="url(#paint0_radial_0_49)"/>
<path d="M55.8319 5.13477C58.6337 13.2479 60.1538 21.9473 60.1538 30.9972C60.1538 40.0472 58.6337 48.7466 55.8319 56.8598C55.6395 57.4168 55.4417 57.9715 55.2373 58.5229C54.7408 59.8626 55.4379 61.3461 56.7943 61.8365C58.1508 62.3268 59.6529 61.6384 60.1494 60.2987C60.6376 58.9813 61.0939 57.6487 61.5173 56.3018C63.3434 50.4926 64.5572 44.4182 65.0846 38.1532C66.8874 36.2987 68 33.7754 68 30.9973C68 28.2191 66.8874 25.6959 65.0846 23.8414C64.5572 17.5764 63.3434 11.502 61.5173 5.69276C61.0939 4.34584 60.6376 3.01323 60.1494 1.69585C59.6529 0.356201 58.1508 -0.332272 56.7943 0.158103C55.4379 0.648478 54.7408 2.132 55.2373 3.47165C55.4417 4.02311 55.6395 4.57771 55.8319 5.13477Z" fill="#FF9F19"/>
<path d="M55.8319 5.13477C58.6337 13.2479 60.1538 21.9473 60.1538 30.9972C60.1538 40.0472 58.6337 48.7466 55.8319 56.8598C55.6395 57.4168 55.4417 57.9715 55.2373 58.5229C54.7408 59.8626 55.4379 61.3461 56.7943 61.8365C58.1508 62.3268 59.6529 61.6384 60.1494 60.2987C60.6376 58.9813 61.0939 57.6487 61.5173 56.3018C63.3434 50.4926 64.5572 44.4182 65.0846 38.1532C66.8874 36.2987 68 33.7754 68 30.9973C68 28.2191 66.8874 25.6959 65.0846 23.8414C64.5572 17.5764 63.3434 11.502 61.5173 5.69276C61.0939 4.34584 60.6376 3.01323 60.1494 1.69585C59.6529 0.356201 58.1508 -0.332272 56.7943 0.158103C55.4379 0.648478 54.7408 2.132 55.2373 3.47165C55.4417 4.02311 55.6395 4.57771 55.8319 5.13477Z" fill="url(#paint1_radial_0_49)"/>
<defs>
<radialGradient id="paint0_radial_0_49" cx="0" cy="0" r="1" gradientUnits="userSpaceOnUse" gradientTransform="translate(34 33) rotate(90) scale(39.5 40.697)">
<stop stop-color="#EF6731"/>
<stop offset="1" stop-color="#FF9F19"/>
</radialGradient>
<radialGradient id="paint1_radial_0_49" cx="0" cy="0" r="1" gradientUnits="userSpaceOnUse" gradientTransform="translate(34 33) rotate(90) scale(39.5 40.697)">
<stop stop-color="#EF6731"/>
<stop offset="1" stop-color="#FF9F19"/>
</radialGradient>
</defs>
</svg>
