<svg width="36" height="44" viewBox="0 0 36 44" fill="none" xmlns="http://www.w3.org/2000/svg">
<path fill-rule="evenodd" clip-rule="evenodd" d="M18.2907 0.000496008H33.9706C34.3135 0.0162279 34.6434 0.134176 34.9162 0.338618C35.1891 0.543059 35.392 0.824283 35.4979 1.1448C35.6038 1.46532 35.6077 1.80991 35.509 2.13264C35.4103 2.45536 35.2137 2.74089 34.9455 2.95117L10.817 26.3169C10.6906 26.4865 10.531 26.6297 10.3474 26.7378C10.1638 26.846 9.96005 26.917 9.7481 26.9467C9.53614 26.9765 9.32027 26.9643 9.11318 26.9109C8.9061 26.8575 8.71198 26.764 8.54225 26.6359L0.417533 18.9005C0.265563 18.7312 0.150787 18.533 0.0803742 18.3182C0.00996152 18.1034 -0.0145748 17.8767 0.00829797 17.6521C0.0311708 17.4276 0.100961 17.2102 0.21331 17.0133C0.325658 16.8165 0.478152 16.6445 0.661264 16.5081L17.3157 0.399257C17.4402 0.268878 17.5915 0.165919 17.7596 0.0971805C17.9277 0.0284422 18.1087 -0.00451134 18.2907 0.000496008ZM17.7093 43.9995H2.02968C1.68677 43.9838 1.35687 43.8659 1.08398 43.6615C0.811083 43.457 0.608158 43.1758 0.502256 42.8553C0.396354 42.5347 0.392507 42.1901 0.491229 41.8674C0.589951 41.5447 0.78655 41.2591 1.05481 41.0489L25.1835 17.6831C25.3099 17.5135 25.4696 17.3703 25.6532 17.2622C25.8367 17.154 26.0405 17.083 26.2525 17.0533C26.4644 17.0235 26.6803 17.0357 26.8874 17.0891C27.0944 17.1425 27.2885 17.236 27.4583 17.3641L35.5824 25.0995C35.7344 25.2688 35.8492 25.467 35.9196 25.6818C35.99 25.8966 36.0146 26.1233 35.9917 26.3478C35.9688 26.5724 35.8991 26.7898 35.7867 26.9867C35.6744 27.1835 35.5219 27.3555 35.3387 27.4919L18.6843 43.6007C18.5598 43.7311 18.4085 43.8341 18.2404 43.9028C18.0723 43.9716 17.8913 44.0045 17.7093 43.9995Z" fill="#F06C2E"/>
<path fill-rule="evenodd" clip-rule="evenodd" d="M18.2907 0.000496008H33.9706C34.3135 0.0162279 34.6434 0.134176 34.9162 0.338618C35.1891 0.543059 35.392 0.824283 35.4979 1.1448C35.6038 1.46532 35.6077 1.80991 35.509 2.13264C35.4103 2.45536 35.2137 2.74089 34.9455 2.95117L10.817 26.3169C10.6906 26.4865 10.531 26.6297 10.3474 26.7378C10.1638 26.846 9.96005 26.917 9.7481 26.9467C9.53614 26.9765 9.32027 26.9643 9.11318 26.9109C8.9061 26.8575 8.71198 26.764 8.54225 26.6359L0.417533 18.9005C0.265563 18.7312 0.150787 18.533 0.0803742 18.3182C0.00996152 18.1034 -0.0145748 17.8767 0.00829797 17.6521C0.0311708 17.4276 0.100961 17.2102 0.21331 17.0133C0.325658 16.8165 0.478152 16.6445 0.661264 16.5081L17.3157 0.399257C17.4402 0.268878 17.5915 0.165919 17.7596 0.0971805C17.9277 0.0284422 18.1087 -0.00451134 18.2907 0.000496008ZM17.7093 43.9995H2.02968C1.68677 43.9838 1.35687 43.8659 1.08398 43.6615C0.811083 43.457 0.608158 43.1758 0.502256 42.8553C0.396354 42.5347 0.392507 42.1901 0.491229 41.8674C0.589951 41.5447 0.78655 41.2591 1.05481 41.0489L25.1835 17.6831C25.3099 17.5135 25.4696 17.3703 25.6532 17.2622C25.8367 17.154 26.0405 17.083 26.2525 17.0533C26.4644 17.0235 26.6803 17.0357 26.8874 17.0891C27.0944 17.1425 27.2885 17.236 27.4583 17.3641L35.5824 25.0995C35.7344 25.2688 35.8492 25.467 35.9196 25.6818C35.99 25.8966 36.0146 26.1233 35.9917 26.3478C35.9688 26.5724 35.8991 26.7898 35.7867 26.9867C35.6744 27.1835 35.5219 27.3555 35.3387 27.4919L18.6843 43.6007C18.5598 43.7311 18.4085 43.8341 18.2404 43.9028C18.0723 43.9716 17.8913 44.0045 17.7093 43.9995Z" fill="url(#paint0_linear_83_4)"/>
<defs>
<linearGradient id="paint0_linear_83_4" x1="0" y1="22" x2="36" y2="22" gradientUnits="userSpaceOnUse">
<stop stop-color="#FF9F19"/>
<stop offset="1" stop-color="#EF6731"/>
</linearGradient>
</defs>
</svg>
