<svg width="54" height="66" viewBox="0 0 54 66" fill="none" xmlns="http://www.w3.org/2000/svg">
<path d="M52.0508 8.28418C53.1271 8.28418 53.9999 9.1499 54 10.2178V64.0664C54 65.1343 53.1271 66 52.0508 66H10.2998C9.22344 66 8.35059 65.1343 8.35059 64.0664V61.583H43.7002C46.9242 61.583 49.5478 58.9807 49.5479 55.7822V8.28418H52.0508ZM43.7002 0C44.7766 0 45.6494 0.865734 45.6494 1.93359V55.7822C45.6493 56.8501 44.7765 57.7158 43.7002 57.7158H1.94922C0.872926 57.7158 0.000112118 56.85 0 55.7822V1.93359C6.08852e-07 0.865734 0.872857 0 1.94922 0H43.7002ZM17.9404 44.7227C19.6985 42.8448 17.0769 40.2435 15.1836 41.9883L12.3867 44.7627L11.6777 44.0596C9.78387 42.3149 7.16298 44.9162 8.9209 46.7939L11.0088 48.8652C11.7344 49.614 13.0388 49.6136 13.7646 48.8652L17.9404 44.7227ZM24.9121 44.5283C22.3283 44.6241 22.333 48.3017 24.9121 48.3955H35.3506C36.4269 48.3954 37.2998 47.5297 37.2998 46.4619C37.2997 45.3942 36.4268 44.5284 35.3506 44.5283H24.9121ZM17.9404 33.332C19.6988 31.4543 17.077 28.8529 15.1836 30.5977L12.3867 33.3721L11.6777 32.668C9.78398 30.9235 7.16355 33.5246 8.9209 35.4023L11.0088 37.4736C11.7344 38.2227 13.0388 38.2225 13.7646 37.4736L17.9404 33.332ZM24.9121 33.1377C22.3283 33.2334 22.333 36.9111 24.9121 37.0049H35.3506C36.4268 37.0048 37.2997 36.139 37.2998 35.0713C37.2998 34.0035 36.4269 33.1378 35.3506 33.1377H24.9121ZM17.9404 21.9404C19.6983 20.0625 17.0769 17.4613 15.1836 19.2061L12.3867 21.9814L11.6777 21.2773C9.78391 19.5327 7.16321 22.134 8.9209 24.0117L11.0088 26.083C11.7344 26.8319 13.0388 26.8315 13.7646 26.083L17.9404 21.9404ZM24.9121 21.7461C22.3283 21.8418 22.333 25.5195 24.9121 25.6133H35.3506C36.4269 25.6132 37.2998 24.7475 37.2998 23.6797C37.2996 22.6121 36.4267 21.7462 35.3506 21.7461H24.9121ZM17.9404 10.5498C19.6987 8.6719 17.077 6.07057 15.1836 7.81543L12.3867 10.5898L11.6777 9.88574C9.78385 8.14139 7.16285 10.7434 8.9209 12.6211L11.0088 14.6914C11.7345 15.4405 13.0388 15.4404 13.7646 14.6914L17.9404 10.5498ZM24.9121 10.3555C22.3283 10.4512 22.333 14.1288 24.9121 14.2227H35.3506C36.4268 14.2225 37.2998 13.3568 37.2998 12.2891C37.2998 11.2213 36.4269 10.3556 35.3506 10.3555H24.9121Z" fill="url(#paint0_radial_0_68)"/>
<defs>
<radialGradient id="paint0_radial_0_68" cx="0" cy="0" r="1" gradientUnits="userSpaceOnUse" gradientTransform="translate(27 33) rotate(90) scale(39.5 32.3182)">
<stop stop-color="#EF6731"/>
<stop offset="1" stop-color="#FF9F19"/>
</radialGradient>
</defs>
</svg>
